<svg width="20" height="16" viewBox="0 0 20 16" fill="none" xmlns="http://www.w3.org/2000/svg">
<path d="M1.75 7C2.16406 7 2.5 6.66563 2.5 6.25V1.75C2.5 1.6125 2.6125 1.5 2.75 1.5H17.25C17.3875 1.5 17.5 1.6125 17.5 1.75V6.25C17.5 6.66563 17.8344 7 18.25 7C18.6656 7 19 6.66563 19 6.25V1.75C19 0.783438 18.2156 0 17.25 0H2.75C1.78344 0 1 0.783438 1 1.75V6.25C1 6.66563 1.33594 7 1.75 7ZM17 8C15.9 8.00625 15.0062 8.89688 15.0062 10C15.0062 11.1031 15.9 11.9938 17 11.9719C18.1 11.9938 18.9937 11.1031 18.9937 10C18.9937 8.89688 18.1 8.00625 17 8ZM10.7437 13H9.25937C8.0125 13 7 14.0469 7 15.3344C7 15.7 7.29063 16 7.65 16H12.3469C12.7094 16 13 15.7 13 15.3344C13 14.0469 11.9875 13 10.7437 13ZM17.7437 13H16.2594C15.0125 13 14 14.0469 14 15.3344C14 15.7 14.2906 16 14.65 16H19.3469C19.7094 16 20 15.7 20 15.3344C20 14.0469 18.9875 13 17.7437 13ZM8.00625 10C8.00625 11.1019 8.89906 11.9953 9.99969 11.9994C11.1 11.9938 11.9937 11.1031 11.9937 10C11.9937 8.89688 11.1 8.00625 10 8C8.9 8.00625 8.00625 8.89688 8.00625 10ZM3.74375 13H2.25938C1.01313 13 0 14.0469 0 15.3344C0 15.7 0.291875 16 0.650937 16H5.34781C5.70937 16 6 15.7 6 15.3344C6 14.0469 4.9875 13 3.74375 13ZM1.00656 10C1.00656 11.1019 1.89938 11.9953 3 11.9994C4.1 11.9938 4.99375 11.1031 4.99375 10C4.99375 8.89688 4.1 8.00625 3 8C1.89938 8.00625 1.00656 8.89688 1.00656 10Z" fill="#212529"/>
</svg>
