<svg width="22" height="22" viewBox="0 0 22 22" fill="none" xmlns="http://www.w3.org/2000/svg">
<path d="M11.0002 0.333008C5.1085 0.333008 0.333496 5.10801 0.333496 10.9997C0.333496 16.8913 5.1085 21.6663 11.0002 21.6663C16.8918 21.6663 21.6668 16.8913 21.6668 10.9997C21.6668 5.10801 16.8918 0.333008 11.0002 0.333008ZM11.0002 19.6663C6.221 19.6663 2.3335 15.7784 2.3335 10.9997C2.3335 6.22092 6.221 2.33301 11.0002 2.33301C15.7793 2.33301 19.6668 6.22092 19.6668 10.9997C19.6668 15.7784 15.7793 19.6663 11.0002 19.6663ZM11.0002 14.333C10.2502 14.333 9.66683 14.9163 9.66683 15.6663C9.66683 16.4163 10.2127 16.9997 11.0002 16.9997C11.7127 16.9997 12.3335 16.4163 12.3335 15.6663C12.3335 14.9163 11.7127 14.333 11.0002 14.333ZM12.3793 5.66634H10.2502C8.62516 5.66634 7.3335 6.95801 7.3335 8.58301C7.3335 9.12467 7.79183 9.58301 8.3335 9.58301C8.87516 9.58301 9.3335 9.12467 9.3335 8.58301C9.3335 8.08301 9.71266 7.66634 10.2127 7.66634H12.3418C12.8793 7.66634 13.3335 8.08301 13.3335 8.58301C13.3335 8.91634 13.1668 9.17051 12.8752 9.33717L10.5002 10.7913C10.1668 10.9997 10.0002 11.333 10.0002 11.6663V12.333C10.0002 12.8747 10.4585 13.333 11.0002 13.333C11.5418 13.333 12.0002 12.8747 12.0002 12.333V12.2497L13.8793 11.083C14.7543 10.5413 15.296 9.58301 15.296 8.58301C15.3335 6.95801 14.0418 5.66634 12.3793 5.66634Z" fill="#343A40"/>
</svg>
